<?xml version="1.0" encoding="UTF-8"?>
<!DOCTYPE svg PUBLIC "-//W3C//DTD SVG 1.1//EN" "http://www.w3.org/Graphics/SVG/1.1/DTD/svg11.dtd">
<!-- Creator: CorelDRAW 2018 (64-Bit) -->
<svg xmlns="http://www.w3.org/2000/svg" xml:space="preserve" width="1.44766in" height="1.66667in" version="1.1" style="shape-rendering:geometricPrecision; text-rendering:geometricPrecision; image-rendering:optimizeQuality; fill-rule:evenodd; clip-rule:evenodd"
viewBox="0 0 1447.67 1666.68"
 xmlns:xlink="http://www.w3.org/1999/xlink">
 <defs>
  <style type="text/css">
   <![CDATA[
    .fil0 {fill:#1C1B17;fill-rule:nonzero}
    .fil2 {fill:#A2D9F7;fill-rule:nonzero}
    .fil1 {fill:#C7E8FB;fill-rule:nonzero}
    .fil3 {fill:#FECC00;fill-rule:nonzero}
   ]]>
  </style>
 </defs>
 <g id="Layer_x0020_1">
  <metadata id="CorelCorpID_0Corel-Layer"/>
  <g id="_1797659742816">
   <path class="fil0" d="M296.97 78.64l0 -63.69c0,-8.26 6.69,-14.95 14.95,-14.95l1025.35 0c8.26,0 14.95,6.7 14.95,14.95l0 721.69 80.5 0c8.26,0 14.95,6.69 14.95,14.95l0 717.32 -0.04 0c0,3.72 -1.38,7.44 -4.16,10.34l-174.34 182.01 -0.13 0.15 -0.08 0.09 -0.05 0.06 -0.13 0.15 -0.05 0.06 -0.08 0.09 -0.14 0.15 -0.02 0.03 -0.11 0.11 -0.14 0.14 -0 0.01 -0.15 0.14 -0.11 0.1 -0.04 0.04 -0.15 0.14 -0.08 0.07 -0.07 0.07 -0.15 0.13 -0.05 0.04 -0.11 0.09 -0.15 0.13 -0.01 0.01 -0.15 0.12 -0.14 0.11 -0.02 0.02 -0.16 0.12 -0.11 0.08 -0.06 0.04 -0.17 0.12 -0.07 0.05 -0.09 0.07 -0.17 0.11 -0.04 0.02 -0.13 0.09 -0.17 0.11 -0.17 0.11 -0.13 0.08 -0.04 0.02 -0.17 0.11 -0.1 0.06 -0.08 0.05 -0.17 0.1 -0.06 0.04 -0.12 0.06 -0.18 0.09 -0.02 0.01 -0.16 0.08 -0.17 0.08 -0.02 0.01 -0.02 0.01 -0.29 0.13 -0.06 0.03 -0.19 0.08 -0.09 0.04 -0.1 0.04 -0.19 0.07 -0.05 0.02 -0.14 0.06 -0.19 0.07 -0.01 0 -0.19 0.07 -0.16 0.06 -0.04 0.01 -0.2 0.07 -0.12 0.04 -0.08 0.02 -0.2 0.06 -0.08 0.02 -0.12 0.04 -0.2 0.06 -0.04 0.01 -0.17 0.04 -0.19 0.05 -0.01 0 -0.2 0.05 -0.15 0.03 -0.06 0.01 -0.2 0.04 -0.11 0.02 -0.1 0.02 -0.21 0.04 -0.06 0.01 -0.15 0.02 -0.21 0.03 -0.02 0 -0.19 0.02 -0.19 0.02 -0.03 0 -0.35 0.03 -0.07 0 -0.21 0.02 -0.09 0 -0.12 0 -0.22 0.01 -0.05 0 -0.17 0 -0.22 0 -1242.66 0c-8.26,0 -14.95,-6.7 -14.95,-14.95l0 -717.32c0,-4.4 1.9,-8.36 4.93,-11.1l114.28 -119.3 0 -631.78c0,-8.26 6.69,-14.95 14.95,-14.95l88.96 0 0 -63.69c0,-8.26 6.69,-14.95 14.95,-14.95l58.89 0z"/>
   <polygon class="fil1" points="893.34,208.32 893.34,463.72 1148.74,463.72 "/>
   <path class="fil2" d="M1322.46 845.13c-0.1,-0.7 -0.15,-1.41 -0.15,-2.13l0 -76.45 0 -29.9 0 -706.74 -995.45 0 0 48.74 936.56 0c8.26,0 14.95,6.69 14.95,14.95l0 797.58 44.09 -46.03zm-73.99 74.32l0 -810.91 -936.56 0 -58.89 0 0 48.74 625.36 0c4.15,0 7.91,1.69 10.61,4.42l306.4 306.4 0.27 0.28 0.26 0.28 0.25 0.29 0.24 0.29 0.24 0.3 0.22 0.3 0.22 0.3 0.21 0.31 0.2 0.31 0.19 0.32 0.18 0.32 0.18 0.32 0.17 0.33 0.16 0.33 0.15 0.33 0.14 0.34 0.13 0.34 0.13 0.34 0.11 0.34 0.11 0.35 0.1 0.35 0.05 0.17 0.04 0.17 0 0 0.04 0.17 0.04 0.18 0.04 0.17 0.04 0.18 0 0 0.03 0.18 0.03 0.18 0.06 0.35 0.04 0.36 0.04 0.35 0.03 0.36 0.02 0.35 0.01 0.36 0 0.36 0 440.79 48.69 0zm-78.59 -425.83l-291.49 0c-8.26,0 -14.95,-6.69 -14.95,-14.95l0 -291.49 -625.36 0 -88.96 0 0 585.61 0 43.11 0 103.56 1020.77 0 0 -425.83zm-890.66 343.88c-8.26,0 -14.95,-6.69 -14.95,-14.95 0,-8.26 6.69,-14.95 14.95,-14.95l772.17 0c8.26,0 14.95,6.7 14.95,14.95 0,8.26 -6.7,14.95 -14.95,14.95l-772.17 0zm0 -110.76c-8.26,0 -14.95,-6.7 -14.95,-14.95 0,-8.26 6.69,-14.95 14.95,-14.95l772.17 0c8.26,0 14.95,6.69 14.95,14.95 0,8.26 -6.7,14.95 -14.95,14.95l-772.17 0zm0 -110.76c-8.26,0 -14.95,-6.7 -14.95,-14.95 0,-8.26 6.69,-14.95 14.95,-14.95l772.17 0c8.26,0 14.95,6.69 14.95,14.95 0,8.26 -6.7,14.95 -14.95,14.95l-772.17 0zm0 -116.04c-8.26,0 -14.95,-6.7 -14.95,-14.95 0,-8.26 6.69,-14.95 14.95,-14.95l386.08 0c8.26,0 14.95,6.69 14.95,14.95 0,8.26 -6.69,14.95 -14.95,14.95l-386.08 0z"/>
   <path class="fil3" d="M1352.22 766.55l0 47.53 45.53 -47.53 -45.53 0zm-74.69 168.62c-0.97,2.74 -2.71,5.11 -4.96,6.86l0 672.54 145.21 -151.59 0 -674.21 -140.24 146.41zm-34.87 14.19l-57.82 0 -1050.66 0 -104.26 0 0 687.42 1212.75 0 0 -687.42zm-1192.73 -29.9l69.29 0 0 -72.34 -69.29 72.34z"/>
  </g>
 </g>
</svg>
